<?xml version="1.0" encoding="UTF-8" standalone="no"?>
<!-- Generator: Adobe Illustrator 16.0.0, SVG Export Plug-In . SVG Version: 6.00 Build 0)  -->
<svg xmlns:rdf="http://www.w3.org/1999/02/22-rdf-syntax-ns#" xmlns="http://www.w3.org/2000/svg" enable-background="new 0 0 1686.684 1515.468" xml:space="preserve" height="2199.4" viewBox="0 0 1267.908 1099.707" width="2535.8" version="1.1" y="0px" x="0px" xmlns:cc="http://creativecommons.org/ns#" xmlns:dc="http://purl.org/dc/elements/1.1/"><metadata><rdf:RDF><cc:Work rdf:about=""><dc:format>image/svg+xml</dc:format><dc:type rdf:resource="http://purl.org/dc/dcmitype/StillImage"/><dc:title/></cc:Work></rdf:RDF></metadata><g transform="translate(-230.29 -204.2)"><g fill="#ef4474"><path d="m851.04 435.91c6.365 6.351 16.664 6.351 23.027 0 6.344-6.351 6.344-16.648 0-23.013-6.363-6.351-16.662-6.351-23.027 0-6.336 6.365-6.336 16.663 0 23.013z"/><path d="m861.26 276.48c12.83 0 23.234-9.84 23.234-21.954v-28.392c0-12.114-10.404-21.939-23.234-21.939s-23.242 9.825-23.242 21.939v28.392c0 12.115 10.412 21.954 23.242 21.954z"/><path d="m967.7 288.14c13.229 0 23.963-10.72 23.963-23.964 0-13.23-10.734-23.965-23.963-23.965-13.246 0-23.943 10.734-23.943 23.965 0 13.244 10.697 23.964 23.943 23.964z"/><path d="m1036.6 366.22c13.223 0 23.955-10.72 23.955-23.956 0-13.245-10.732-23.965-23.955-23.965-13.252 0-23.965 10.72-23.965 23.965 0 13.236 10.713 23.956 23.965 23.956z"/><path d="m685.76 366.22c13.238 0 23.973-10.72 23.973-23.956 0-13.245-10.734-23.965-23.973-23.965-13.244 0-23.957 10.72-23.957 23.965 0 13.236 10.713 23.956 23.957 23.956z"/><path d="m752.97 288.14c13.23 0 23.949-10.72 23.949-23.964 0-13.23-10.719-23.965-23.949-23.965-13.244 0-23.971 10.734-23.971 23.965 0 13.244 10.727 23.964 23.971 23.964z"/><path d="m823.61 385.17c-0.043 0.057-0.1 0.085-0.156 0.136-21.584 21.604-21.584 56.596 0 78.186 21.596 21.604 56.594 21.604 78.191 0 19.695-19.681 21.225-50.396 5.014-72.057l41.949-60.036s4.512-11.471-6.086-18.486-20.545 0.837-20.545 0.837l-41.027 58.698c-11.887-4.19-24.844-4.19-36.736-0.015l-50.109-72.014-15.348 1.609-5.793 13.323zm50.459 27.725c6.344 6.364 6.344 16.662 0 23.013-6.363 6.351-16.662 6.351-23.027 0-6.336-6.351-6.336-16.648 0-23.013 6.365-6.35 16.664-6.35 23.027 0z"/></g><path fill="#ef4474" d="m1269.9 371.43s-205.8-26.524-333.35 98.31c-35.828 35.056-58.355 76.211-69.99 122.64-11.635 46.448-24.35 107.23-35.535 136.3-11.041 28.748-21.439 76.762-105.36 101.82-71.67 21.39-127.79 7.895-127.79 7.895s-5.721-35.899 16.67-80.853c27.639-55.466 164.4-109.88 164.4-109.88s-202.08 1.438-240.16-89.491c-26.947-64.369-14.846-117.85-14.846-117.85s204.78-17.471 284.16 167.83c1.588 3.704 15.504 41.22 15.504 41.22s13.76-50.56 13.76-78.864c0-36.644-18.051-63.755-35.264-87.876-78.143-109.52-295.61-111.21-349.42-111.21 0 0-16.621 166.65 35.369 236.16 50.66 67.723 140.8 69.053 140.8 69.053s-62.18 23.156-77.541 73.916c-15.375 50.753-26.99 141.02-26.99 141.02s101.96 13.236 182.85-3.269c33.754-6.908 82.533-19.251 124.86-82.798 44.811-67.266 45.326-106.94 81.326-199.69 66.436-171.15 284.96-165.49 284.96-165.49s12.158 53.478-14.932 117.85c-38.273 90.929-241.5 89.491-241.5 89.491s140.06 54.414 167.85 109.88c22.506 44.953 17.207 81.139 17.207 81.139s-49.951 16.155-121.08-8.181c-71.693-24.572-95.057-125.03-95.057-125.03s-25.795 45.826-16.334 80.61c8.238 30.235 53.234 84.829 119.56 102.22 66.307 17.378 183.8 3.269 183.8 3.269s-11.691-90.265-27.152-141.02c-15.434-50.76-77.914-73.916-77.914-73.916s90.621-1.33 141.56-69.053c52.267-69.512 35.561-236.16 35.561-236.16z"/></g><g fill="#ef4474" transform="translate(-230.29 -204.2)"><path d="m418.1 1261.1c-10.102 15.295-22.577 26.255-37.432 32.889-14.862 6.633-31.231 9.952-49.116 9.952-15.294 0-29.142-2.596-41.543-7.789-12.407-5.192-23.083-12.475-32.022-21.853-8.945-9.372-15.795-20.481-20.555-33.321-4.76-12.833-7.14-27.046-7.14-42.625 0-14.997 2.448-28.845 7.356-41.542 4.903-12.691 11.827-23.727 20.772-33.104 8.939-9.372 19.473-16.729 31.59-22.069 12.117-5.336 25.532-8.006 40.245-8.006 15.288 0 28.777 2.67 40.461 8.006 11.684 5.341 21.488 12.406 29.426 21.203 7.932 8.804 13.916 18.824 17.959 30.075 4.037 11.252 6.059 22.651 6.059 34.187v18.175h-167.92c0 5.484 1.082 12.482 3.246 20.988 2.164 8.513 6.126 16.809 11.9 24.882 5.768 8.08 13.482 15.004 23.152 20.771 9.662 5.774 22.137 8.655 37.431 8.655 13.266 0 26.106-3.171 38.514-9.521 12.401-6.342 21.921-14.997 28.561-25.964zm-19.906-79.191c0-8.939-1.805-17.31-5.409-25.099-3.611-7.79-8.513-14.639-14.713-20.556-6.207-5.909-13.563-10.602-22.069-14.063-8.513-3.462-17.526-5.193-27.047-5.193-14.138 0-25.896 2.888-35.268 8.655-9.378 5.774-16.809 12.407-22.286 19.905-5.484 7.506-9.378 14.788-11.684 21.854-2.313 7.072-3.462 11.9-3.462 14.497z"/><path d="m482.57 1247.6c5.477 10.677 13.557 18.824 24.233 24.45 10.669 5.626 21.92 8.438 33.753 8.438 5.477 0 10.96-0.865 16.443-2.597 5.478-1.73 10.386-4.179 14.714-7.356 4.327-3.171 7.857-6.991 10.602-11.468 2.738-4.469 4.111-9.588 4.111-15.362 0-9.229-2.962-16.153-8.871-20.771-5.917-4.611-13.198-8.222-21.853-10.818s-18.175-4.827-28.561-6.707c-10.386-1.873-19.906-4.76-28.561-8.655s-15.944-9.304-21.853-16.228c-5.917-6.924-8.872-16.728-8.872-29.426 0-9.805 2.015-18.317 6.059-25.531 4.037-7.208 9.304-13.198 15.795-17.959 6.491-4.76 13.773-8.29 21.853-10.603 8.073-2.305 16.295-3.461 24.666-3.461 16.444 0 30.651 3.029 42.625 9.087 11.967 6.059 21.271 15.579 27.912 28.561l-23.368 13.848c-4.909-9.229-11.035-16.228-18.391-20.987-7.356-4.761-16.951-7.141-28.777-7.141-4.618 0-9.452 0.724-14.497 2.164-5.051 1.447-9.594 3.462-13.631 6.059-4.043 2.596-7.431 5.916-10.169 9.952-2.745 4.044-4.111 8.655-4.111 13.848 0 8.946 2.955 15.579 8.871 19.906 5.91 4.327 13.199 7.722 21.854 10.169 8.654 2.455 18.174 4.544 28.56 6.275 10.385 1.73 19.906 4.544 28.56 8.438 8.655 3.895 15.938 9.52 21.854 16.876 5.91 7.357 8.871 17.817 8.871 31.374 0 10.386-1.947 19.405-5.842 27.046-3.895 7.647-9.236 14.064-16.011 19.257-6.782 5.193-14.497 9.088-23.151 11.684-8.655 2.597-17.742 3.895-27.262 3.895-17.31 0-33.104-3.319-47.385-9.952-14.28-6.634-25.315-16.877-33.104-30.725z"/><path d="m764.28 1122.2h-57.121v130.25c0 8.945 2.448 15.869 7.356 20.771 4.902 4.908 11.684 7.356 20.339 7.356 4.901 0 9.878-0.649 14.929-1.947 5.044-1.299 9.878-2.955 14.497-4.977l2.164 23.368c-4.909 1.73-10.535 3.313-16.877 4.76-6.35 1.44-11.975 2.163-16.877 2.163-9.236 0-17.167-1.372-23.8-4.11-6.64-2.738-11.975-6.417-16.011-11.035-4.043-4.611-6.998-10.021-8.871-16.228-1.88-6.2-2.813-12.907-2.813-20.122v-130.2h-43.274v-23.368h43.274v-57.554h25.964v57.554h57.121z"/><path d="m987.14 1261.1c-10.102 15.295-22.576 26.255-37.432 32.889-14.862 6.633-31.231 9.952-49.116 9.952-15.294 0-29.142-2.596-41.542-7.789-12.408-5.192-23.084-12.475-32.022-21.853-8.946-9.372-15.795-20.481-20.556-33.321-4.76-12.833-7.14-27.046-7.14-42.625 0-14.997 2.447-28.845 7.356-41.542 4.902-12.691 11.825-23.727 20.771-33.104 8.938-9.372 19.473-16.729 31.59-22.069 12.116-5.336 25.531-8.006 40.244-8.006 15.288 0 28.777 2.67 40.461 8.006 11.684 5.341 21.488 12.406 29.426 21.203 7.932 8.804 13.916 18.824 17.959 30.075 4.037 11.252 6.059 22.651 6.059 34.187v18.175h-167.9c0 5.484 1.082 12.482 3.245 20.988 2.164 8.513 6.126 16.809 11.9 24.882 5.768 8.08 13.482 15.004 23.151 20.771 9.663 5.774 22.138 8.655 37.433 8.655 13.266 0 26.105-3.171 38.514-9.521 12.4-6.342 21.921-14.997 28.561-25.964zm-19.907-79.191c0-8.939-1.805-17.31-5.409-25.099-3.61-7.79-8.513-14.639-14.713-20.556-6.207-5.909-13.563-10.602-22.069-14.063-8.513-3.462-17.526-5.193-27.046-5.193-14.139 0-25.896 2.888-35.269 8.655-9.378 5.774-16.809 12.407-22.286 19.905-5.483 7.506-9.378 14.788-11.684 21.854-2.313 7.072-3.462 11.9-3.462 14.497z"/><path d="m1149 1122.2h-57.122v130.25c0 8.945 2.448 15.869 7.357 20.771 4.901 4.908 11.684 7.356 20.338 7.356 4.902 0 9.879-0.649 14.93-1.947 5.044-1.299 9.879-2.955 14.497-4.977l2.163 23.368c-4.908 1.73-10.534 3.313-16.876 4.76-6.35 1.44-11.976 2.163-16.877 2.163-9.236 0-17.168-1.372-23.801-4.11-6.64-2.738-11.975-6.417-16.012-11.035-4.043-4.611-6.998-10.021-8.871-16.228-1.879-6.2-2.813-12.907-2.813-20.122v-130.2h-43.273v-23.368h43.273v-57.554h25.964v57.554h57.122v23.369z"/><path d="m1193.1 1019.6c0-5.477 1.873-10.096 5.626-13.848 3.746-3.746 8.364-5.626 13.848-5.626 5.477 0 10.095 1.88 13.848 5.626 3.746 3.752 5.625 8.371 5.625 13.848 0 5.483-1.879 10.102-5.625 13.848-3.753 3.752-8.371 5.625-13.848 5.625-5.483 0-10.102-1.873-13.848-5.625-3.753-3.747-5.626-8.365-5.626-13.848zm6.491 79.19h25.964v199.92h-25.964z"/><path d="m1287.9 1198.7c0-15.288 2.596-29.353 7.789-42.192 5.192-12.833 12.4-23.942 21.637-33.32 9.229-9.372 20.339-16.66 33.321-21.854 12.981-5.193 27.113-7.789 42.408-7.789 15.287 0 29.352 2.596 42.191 7.789 12.833 5.193 23.942 12.481 33.321 21.854 9.371 9.378 16.66 20.487 21.853 33.32 5.193 12.84 7.79 26.904 7.79 42.192 0 15.294-2.597 29.358-7.79 42.191-5.192 12.84-12.481 23.949-21.853 33.321-9.379 9.378-20.488 16.66-33.321 21.853-12.84 5.193-26.904 7.789-42.191 7.789-15.295 0-29.427-2.596-42.408-7.789-12.982-5.192-24.092-12.475-33.321-21.853-9.236-9.372-16.444-20.481-21.637-33.321-5.194-12.833-7.789-26.897-7.789-42.191zm25.964 0c0 11.251 1.799 21.853 5.409 31.806 3.604 9.953 8.871 18.607 15.795 25.964s15.288 13.199 25.099 17.526c9.805 4.327 20.771 6.491 32.889 6.491 12.116 0 23.077-2.164 32.888-6.491 9.804-4.327 18.175-10.169 25.099-17.526 6.924-7.356 12.185-16.011 15.795-25.964 3.604-9.953 5.409-20.555 5.409-31.806 0-11.252-1.806-21.854-5.409-31.807-3.61-9.953-8.871-18.607-15.795-25.964s-15.295-13.199-25.099-17.526c-9.811-4.327-20.771-6.491-32.888-6.491s-23.084 2.164-32.889 6.491c-9.811 4.327-18.175 10.17-25.099 17.526s-12.191 16.011-15.795 25.964c-3.611 9.954-5.409 20.555-5.409 31.807z"/></g></svg>
